<?xml version="1.0" standalone="no"?>
<!DOCTYPE svg PUBLIC "-//W3C//DTD SVG 20010904//EN"
 "http://www.w3.org/TR/2001/REC-SVG-20010904/DTD/svg10.dtd">
<svg version="1.0" xmlns="http://www.w3.org/2000/svg"
 width="62.000000pt" height="62.000000pt" viewBox="0 0 62.000000 62.000000"
 preserveAspectRatio="xMidYMid meet">
<metadata>
Created by potrace 1.13, written by Peter Selinger 2001-2015
</metadata>
<g transform="translate(0.000000,62.000000) scale(0.100000,-0.100000)"
fill="#000000" stroke="none">
<path d="M241 610 c-89 -19 -173 -89 -215 -179 -15 -34 -21 -65 -20 -121 0
-126 55 -214 166 -270 111 -55 244 -37 336 45 64 57 95 122 100 207 5 78 -2
108 -20 90 -16 -16 -61 -15 -76 0 -20 20 -14 56 13 74 13 8 29 13 35 9 26 -16
6 15 -37 57 -77 76 -181 108 -282 88z"/>
</g>
</svg>
